<?xml version="1.0" encoding="UTF-8" standalone="no"?>
<svg
   version="1.0"
   width="1024.000000pt"
   height="1024.000000pt"
   viewBox="0 0 1024.000000 1024.000000"
   preserveAspectRatio="xMidYMid meet"
   id="svg18"
   xmlns="http://www.w3.org/2000/svg"
   xmlns:svg="http://www.w3.org/2000/svg">
  <defs
     id="defs18" />
  <metadata
     id="metadata1">
Created by potrace 1.16, written by Peter Selinger 2001-2019
</metadata>
  <g
     transform="translate(0.000000,1024.000000) scale(0.100000,-0.100000)"
     fill="#000000"
     stroke="none"
     id="g18">
    <path
       d="M0 5120 l0 -5120 5120 0 5120 0 0 5120 0 5120 -5120 0 -5120 0 0 -5120z m7250 3001 c128 -21 170 -44 154 -86 -7 -16 -82 -60 -90 -52 -3 2 9 10 25 17 16 6 37 20 47 31 49 55 -78 84 -421 95 -205 7 -393 -6 -507 -35 -95 -25 -234 -84 -231 -99 2 -6 -4 -9 -13 -5 -9 3 -14 0 -12 -8 2 -9 -6 -14 -22 -14 -14 0 -24 -5 -23 -12 2 -8 -4 -10 -14 -6 -10 4 -14 2 -10 -4 4 -6 -1 -17 -10 -24 -14 -12 -16 -12 -9 0 6 9 4 12 -5 9 -8 -3 -14 -10 -14 -15 0 -6 -4 -15 -9 -20 -5 -5 -6 -2 -1 6 5 9 3 12 -6 9 -8 -3 -13 -10 -12 -16 1 -5 -5 -16 -14 -24 -14 -11 -16 -11 -9 1 6 9 4 12 -5 9 -8 -3 -14 -11 -14 -18 0 -7 -8 -14 -18 -16 -22 -3 -48 -24 -42 -34 2 -4 -7 -18 -20 -30 -14 -13 -25 -20 -25 -16 0 5 -7 3 -15 -4 -9 -7 -13 -15 -10 -18 9 -10 -27 -41 -41 -35 -13 5 -19 -8 -15 -30 1 -5 -3 -6 -7 -3 -10 6 -49 -32 -44 -43 1 -3 -2 -6 -8 -6 -5 0 -10 -4 -11 -10 -1 -15 -20 -35 -28 -30 -4 2 -31 -22 -59 -55 -51 -58 -64 -78 -39 -64 8 5 8 3 -2 -9 -7 -9 -17 -15 -21 -12 -7 5 -166 -185 -376 -450 -293 -370 -613 -735 -869 -990 -85 -86 -180 -165 -197 -165 -6 0 16 19 48 43 33 24 135 122 228 218 260 268 515 564 836 969 322 407 550 662 705 790 191 156 394 248 605 274 61 7 593 -3 650 -13z m-2846 -1 c132 -11 189 -31 194 -67 3 -19 -14 -30 -117 -83 -141 -72 -208 -136 -265 -252 -53 -108 -66 -172 -77 -388 -11 -214 -4 -1069 11 -1310 11 -168 11 -188 0 -140 -19 79 -32 627 -26 1120 7 546 8 580 17 574 8 -5 30 80 26 98 -2 7 -2 9 1 4 4 -7 72 109 72 122 0 3 -8 -2 -17 -9 -15 -12 -15 -10 1 8 10 12 21 22 25 21 3 -1 31 23 61 53 39 39 88 72 168 112 61 32 112 62 112 67 0 18 -31 38 -67 44 -108 18 -261 24 -697 25 -264 1 -482 4 -485 6 -9 9 946 5 1063 -5z m2518 -32 c54 -2 98 -6 98 -10 0 -5 10 -8 23 -9 12 -1 -5 -7 -38 -15 -33 -7 -65 -11 -72 -9 -6 2 -13 0 -15 -6 -2 -5 -28 -13 -58 -18 -30 -5 -68 -15 -85 -22 -16 -7 -34 -13 -40 -14 -5 0 -17 -5 -25 -10 -37 -24 -140 -71 -140 -65 0 8 -53 -9 -86 -27 -12 -7 -24 -9 -28 -6 -3 3 -6 1 -6 -5 0 -10 -32 -25 -58 -26 -7 -1 -16 -5 -20 -11 -4 -5 -14 -14 -23 -20 -61 -38 -102 -69 -132 -98 -18 -19 -38 -36 -44 -38 -10 -4 -157 -134 -226 -201 -16 -16 -30 -28 -32 -28 -2 0 -29 -25 -59 -55 -30 -30 -58 -55 -63 -55 -5 0 -19 -9 -31 -20 -23 -22 -64 -40 -89 -40 -13 0 -14 2 -2 18 12 15 12 16 -2 5 -8 -7 -49 -56 -90 -109 -155 -202 -451 -561 -551 -669 l-19 -20 7 20 c7 18 6 18 -9 7 -38 -31 33 80 133 209 127 163 169 219 195 255 11 15 45 58 75 95 50 61 100 123 230 287 25 31 50 62 56 67 6 6 28 32 50 59 64 82 249 276 261 276 10 0 58 54 55 63 -1 4 1 6 5 5 12 -3 65 28 92 53 14 13 32 24 40 26 9 1 20 8 26 16 5 7 15 12 20 10 6 -2 21 6 33 17 12 12 22 17 22 13 0 -4 6 1 13 11 7 9 17 16 22 15 6 -1 17 0 25 3 8 4 36 12 63 18 26 7 50 17 53 21 3 5 16 9 30 9 14 0 23 3 21 8 -3 4 16 7 41 7 58 1 215 16 221 21 3 2 12 2 20 -1 9 -2 60 -6 113 -7z m-2686 -50 c3 -4 12 -5 22 -2 14 5 15 4 2 -4 -9 -6 -44 -12 -80 -13 -75 -3 -110 -9 -110 -18 1 -11 50 -66 50 -55 0 5 -9 20 -19 31 -20 21 -20 21 11 25 21 4 35 -1 46 -13 9 -10 20 -15 25 -12 5 3 3 9 -4 14 -10 6 -7 8 9 6 12 0 22 -4 22 -8 0 -14 -28 -29 -43 -23 -12 4 -18 -2 -23 -20 -6 -26 -14 -30 -44 -26 -10 1 -9 -3 5 -14 14 -12 15 -14 4 -10 -10 3 -20 0 -24 -6 -3 -6 -3 -10 2 -9 17 3 33 -1 33 -9 0 -5 -10 -8 -22 -7 -21 2 -37 -10 -38 -27 0 -3 10 -4 23 -1 22 6 21 6 -3 -16 -14 -12 -18 -19 -10 -16 8 4 -5 -11 -29 -34 -25 -23 -41 -41 -37 -41 4 0 4 -6 -1 -12 -4 -7 -8 -20 -8 -28 0 -9 -7 -14 -20 -12 -18 4 -18 2 4 -17 24 -21 24 -21 3 -21 -12 0 -22 -1 -22 -3 0 -1 4 -17 10 -36 6 -23 6 -40 -2 -55 -7 -11 -13 -30 -14 -41 -3 -27 -13 -77 -19 -93 -3 -7 0 -10 5 -7 6 3 10 1 10 -5 0 -6 -6 -13 -14 -16 -8 -3 -12 -13 -9 -24 3 -10 -2 -29 -11 -42 -9 -14 -13 -28 -9 -32 4 -3 8 -13 9 -22 2 -13 0 -13 -14 -2 -9 7 -14 8 -10 4 4 -5 3 -15 -2 -21 -8 -9 -4 -12 15 -10 14 2 23 -1 19 -6 -3 -5 -9 -7 -14 -4 -20 13 -18 -15 2 -30 l23 -16 -28 7 c-23 5 -26 4 -20 -12 5 -13 3 -15 -7 -9 -10 6 -12 4 -7 -9 4 -10 -1 -28 -10 -43 -14 -21 -14 -25 -3 -21 8 3 14 11 12 17 -1 7 2 9 9 5 9 -5 6 -12 -9 -25 -12 -9 -22 -22 -22 -27 0 -5 -7 -15 -15 -22 -8 -7 -14 -20 -13 -28 2 -10 -5 -18 -17 -20 -11 -2 -24 -8 -30 -14 -6 -6 -3 -7 10 -2 19 7 19 7 3 -13 -20 -22 -23 -33 -7 -33 5 0 7 5 3 12 -4 7 -3 8 5 4 15 -9 3 -29 -14 -22 -7 2 -18 -1 -25 -7 -10 -9 -12 -8 -7 6 8 21 -9 23 -17 1 -4 -10 -13 -13 -25 -9 -14 4 -23 0 -30 -13 -6 -11 -8 -22 -5 -25 4 -3 -3 -5 -15 -4 -11 1 -21 7 -21 14 0 7 7 10 15 7 10 -4 15 0 15 14 0 11 6 23 13 25 9 4 9 6 -1 6 -7 1 -15 -6 -18 -14 -5 -12 -10 -13 -20 -4 -7 6 -17 8 -22 5 -9 -5 -12 4 -15 53 -2 25 -6 28 -31 27 -23 -2 -25 0 -13 9 22 16 15 64 -13 87 -12 10 -17 18 -10 18 8 0 9 4 4 13 -5 6 -9 28 -9 49 0 21 -4 34 -10 30 -5 -3 -4 1 3 10 8 11 9 18 3 22 -7 5 -7 15 -1 32 13 32 13 35 -2 32 -7 -2 -11 4 -9 12 1 8 3 32 4 53 0 20 4 37 8 37 8 0 4 39 -5 47 -3 3 -1 15 4 28 6 15 4 27 -3 35 -7 7 -7 10 -2 7 18 -10 38 9 31 29 -6 16 -8 16 -16 4 -6 -9 -10 -10 -10 -3 0 6 7 18 15 27 18 17 20 30 3 20 -7 -4 -8 -3 -4 4 4 6 14 8 23 5 10 -4 14 -2 10 4 -4 6 0 19 9 27 14 15 11 20 -8 17 -5 0 -8 5 -8 13 0 8 7 13 16 12 9 0 19 6 21 14 4 12 3 12 -5 1 -6 -8 -12 -9 -16 -3 -8 14 15 28 42 26 25 -2 27 4 7 29 -14 20 -10 51 6 41 5 -3 7 -9 4 -14 -3 -5 -2 -11 3 -14 12 -7 11 26 -1 42 -5 7 -7 15 -3 19 3 3 6 1 6 -6 0 -7 5 -9 10 -6 6 3 10 1 10 -4 0 -6 4 -11 8 -11 5 0 9 7 9 15 0 8 -4 15 -9 15 -19 0 -6 30 16 36 16 4 23 11 19 20 -3 8 2 16 10 20 9 3 13 13 10 22 -4 15 -3 15 6 2 6 -8 11 -10 11 -5 0 6 4 4 9 -3 6 -10 11 -9 22 4 8 10 9 15 2 11 -6 -4 -14 -4 -17 1 -2 4 5 9 16 9 12 1 24 6 27 11 5 7 56 9 56 2 0 -1 10 -3 22 -4 17 -2 20 0 12 10 -7 8 -6 13 3 17 7 2 -25 5 -72 6 -88 1 -170 7 -255 16 -27 3 -95 9 -150 13 -144 10 -65 17 215 20 123 2 227 5 229 8 9 8 372 1 377 -8z m2689 -38 c5 -8 11 -7 21 1 9 7 14 8 14 1 0 -6 -8 -13 -19 -17 -22 -7 -53 4 -45 16 7 12 21 11 29 -1z m-4062 -31 c48 -25 79 -64 101 -131 7 -24 -16 -23 -31 1 -6 10 -32 44 -57 75 -57 69 -59 79 -13 55z m3997 -16 c0 10 4 16 9 13 5 -4 11 -1 13 6 3 7 9 8 21 2 15 -8 10 -13 -27 -31 l-44 -22 -4 31 -5 30 18 -23 c16 -21 19 -21 19 -6z m400 2 c-14 -8 -29 -14 -35 -14 -5 0 1 6 15 14 14 8 30 14 35 14 6 0 -1 -6 -15 -14z m-443 -17 c2 -20 -13 -24 -19 -6 -5 14 -28 2 -28 -15 0 -8 3 -8 9 1 6 11 9 9 13 -6 4 -16 2 -19 -10 -15 -12 5 -14 1 -9 -16 5 -21 4 -22 -12 -7 -10 9 -20 13 -23 10 -3 -3 -9 -1 -13 5 -3 6 1 11 10 11 9 0 13 5 10 10 -3 6 -1 10 6 10 7 0 9 3 6 7 -11 11 10 28 35 28 16 0 25 -6 25 -17z m313 -42 c0 -2 -7 -7 -16 -10 -8 -3 -12 -2 -9 4 6 10 25 14 25 6z m-40 -20 c0 -2 -7 -7 -16 -10 -8 -3 -12 -2 -9 4 6 10 25 14 25 6z m-40 -21 c0 -2 -10 -9 -22 -15 -22 -11 -22 -10 -4 4 21 17 26 19 26 11z m-50 -29 c0 -2 -16 -13 -35 -25 -19 -11 -35 -18 -35 -16 0 5 61 45 68 45 1 0 2 -2 2 -4z m-3385 -77 c11 -17 -1 -21 -15 -4 -8 9 -8 15 -2 15 6 0 14 -5 17 -11z m3275 7 c0 -2 -8 -10 -17 -17 -16 -13 -17 -12 -4 4 13 16 21 21 21 13z m-2854 -18 c-6 -29 -19 -47 -29 -41 -6 4 -3 11 8 20 11 7 15 13 11 13 -4 0 -4 5 -1 10 9 14 14 13 11 -2z m2814 -12 c0 -2 -8 -10 -17 -17 -16 -13 -17 -12 -4 4 13 16 21 21 21 13z m-40 -29 c0 -2 -12 -14 -27 -28 l-28 -24 24 28 c23 25 31 32 31 24z m-70 -60 c0 -2 -10 -12 -22 -23 l-23 -19 19 23 c18 21 26 27 26 19z m-120 -112 c-24 -25 -46 -45 -49 -45 -3 0 15 20 39 45 24 25 46 45 49 45 3 0 -15 -20 -39 -45z m-140 -148 c0 -2 -12 -14 -27 -28 l-28 -24 24 28 c23 25 31 32 31 24z m-2547 -70 c3 -8 -1 -14 -8 -14 -7 0 -11 6 -8 14 3 7 6 13 8 13 2 0 5 -6 8 -13z m174 -19 c-3 -7 -5 -2 -5 12 0 14 2 19 5 13 2 -7 2 -19 0 -25z m1565 -25 c-6 -2 -10 -9 -7 -14 4 -5 -1 -6 -9 -3 -20 8 -11 24 12 23 11 0 12 -2 4 -6z m-2092 -297 c0 -3 -4 -8 -10 -11 -5 -3 -10 -1 -10 4 0 6 5 11 10 11 6 0 10 -2 10 -4z m128 -77 c3 -12 2 -12 -6 0 -8 11 -11 10 -15 -5 -4 -16 -5 -15 -6 4 -1 25 20 26 27 1z m3112 -259 c251 -33 537 -166 680 -316 l55 -58 -63 57 c-125 113 -269 194 -445 252 -139 45 -229 59 -377 58 -331 -1 -626 -127 -865 -368 -55 -55 -124 -137 -154 -180 -62 -91 -85 -119 -51 -60 64 108 216 279 320 360 262 202 589 295 900 255z m4 -48 c32 -6 64 -16 70 -22 7 -5 16 -7 19 -3 4 3 13 0 21 -6 8 -7 19 -10 25 -7 5 3 11 2 13 -3 1 -5 12 -11 23 -13 11 -1 22 -6 25 -9 3 -4 16 -9 30 -10 14 -2 28 -8 31 -12 4 -5 18 -10 32 -10 14 -1 23 -5 20 -9 -2 -5 3 -8 12 -8 16 0 85 -41 85 -51 0 -7 -122 31 -130 40 -6 7 -5 6 -110 32 -80 20 -220 33 -220 20 0 -4 6 -13 13 -20 10 -10 9 -11 -5 -6 -10 4 -18 13 -18 21 0 8 -9 13 -24 12 -14 -1 -22 -6 -20 -10 3 -4 11 -5 19 -1 8 3 15 0 15 -6 0 -7 -25 -11 -67 -11 -241 0 -467 -85 -707 -267 -36 -27 -45 -31 -35 -15 8 12 22 25 32 28 10 3 16 8 13 11 -6 7 19 33 32 33 5 0 17 9 27 20 10 11 15 20 12 20 -15 0 -135 -91 -194 -147 -13 -13 -29 -23 -35 -23 -6 0 -9 -3 -5 -6 3 -3 -15 -26 -39 -52 -42 -43 -46 -45 -61 -29 -16 16 -16 17 1 17 14 0 17 5 13 21 -4 15 -2 19 9 15 8 -3 13 -2 9 3 -3 5 11 25 30 45 19 20 35 39 35 43 0 3 10 15 23 27 13 12 26 29 30 39 3 9 10 16 14 15 7 -2 61 42 120 99 13 12 23 19 23 15 0 -4 9 4 19 17 10 14 32 26 47 28 16 2 34 10 39 16 6 7 6 9 1 5 -16 -13 -31 -9 -19 3 7 7 22 13 35 14 38 4 39 5 34 14 -6 9 40 26 58 22 4 -1 14 3 22 9 7 7 28 14 46 17 18 3 34 9 36 14 2 4 17 5 34 2 24 -5 29 -3 23 7 -5 9 -2 10 13 6 11 -4 23 -3 26 2 3 5 18 7 32 4 15 -3 24 -1 21 4 -8 14 256 10 327 -4z m1 -100 c-3 -3 -11 0 -18 7 -9 10 -8 11 6 5 10 -3 15 -9 12 -12z m-25 -42 c82 -13 162 -31 157 -36 -2 -2 -37 4 -78 12 -95 21 -290 21 -384 0 -263 -58 -510 -220 -686 -451 -131 -172 -200 -341 -239 -582 -32 -204 -34 -225 -19 -234 11 -7 11 -9 1 -9 -7 0 -15 7 -18 14 -10 26 37 317 68 420 83 280 251 513 485 674 239 162 481 228 713 192z m1010 -210 c22 -101 39 -187 37 -193 -1 -5 -18 57 -36 139 -19 82 -40 171 -48 197 l-14 48 -22 -32 c-12 -18 -33 -39 -47 -48 -17 -11 -9 3 24 42 37 44 51 55 57 44 5 -8 27 -96 49 -197z m-529 163 c13 -16 12 -17 -3 -4 -10 7 -18 15 -18 17 0 8 8 3 21 -13z m-271 -3 c18 -12 2 -12 -25 0 -13 6 -15 9 -5 9 8 0 22 -4 30 -9z m90 -35 c14 -8 21 -14 15 -14 -5 0 -21 6 -35 14 -14 8 -20 14 -15 14 6 0 21 -6 35 -14z m658 -105 c11 -47 23 -107 26 -135 6 -56 4 -51 -30 95 -14 58 -28 114 -31 125 -3 14 -2 17 5 10 6 -5 19 -48 30 -95z m-568 54 c0 -2 -9 0 -20 6 -11 6 -20 13 -20 16 0 2 9 0 20 -6 11 -6 20 -13 20 -16z m-477 -16 c12 -9 19 -35 23 -86 l7 -72 41 -11 c56 -15 109 -43 151 -80 28 -25 35 -38 35 -67 0 -79 -60 -93 -142 -35 -47 34 -60 38 -125 42 -85 4 -122 -8 -158 -51 -45 -53 -25 -128 44 -166 20 -11 75 -34 123 -51 48 -16 105 -39 127 -51 87 -44 152 -126 150 -187 -1 -25 -2 -25 -8 7 -23 110 -84 157 -315 236 -137 48 -187 112 -151 197 5 12 2 17 -10 17 -12 0 -15 -5 -11 -17 5 -15 3 -14 -9 2 -16 20 -16 20 -36 -5 -13 -17 -17 -19 -13 -6 6 16 3 17 -17 11 -18 -5 -21 -4 -9 4 10 7 11 11 3 11 -20 0 -15 18 18 66 20 30 36 43 45 40 8 -3 12 -2 9 4 -7 11 46 40 92 50 31 7 31 7 28 -26 -2 -19 0 -34 5 -34 4 0 7 12 8 28 0 55 1 59 12 42 12 -18 12 -17 10 93 l-1 77 35 0 35 0 4 -67 4 -68 -1 70 -1 70 -40 0 -40 0 -3 -76 -3 -77 -59 -21 c-173 -63 -247 -219 -172 -362 34 -66 86 -100 244 -158 62 -23 127 -51 145 -64 34 -23 68 -79 60 -100 -2 -7 -7 3 -11 20 -10 43 -63 86 -140 114 -173 63 -216 82 -253 114 -90 77 -113 205 -56 307 35 62 109 123 173 142 l45 13 3 69 c2 56 6 72 23 87 25 20 58 22 82 5z m558 -35 c13 -16 12 -17 -3 -4 -10 7 -18 15 -18 17 0 8 8 3 21 -13z m59 -48 c19 -19 32 -35 29 -35 -3 0 -20 16 -39 35 -19 19 -32 35 -29 35 3 0 20 -16 39 -35z m65 -65 c10 -11 16 -20 13 -20 -3 0 -13 9 -23 20 -10 11 -16 20 -13 20 3 0 13 -9 23 -20z m-1668 -94 c4 -4 -3 -16 -17 -26 -29 -23 -48 -26 -31 -6 6 8 11 18 10 22 -4 23 20 29 38 10z m-557 -20 c0 -2 -8 -10 -17 -17 -16 -13 -17 -12 -4 4 13 16 21 21 21 13z m2708 -121 c0 -11 -6 3 -13 30 -7 28 -13 59 -13 70 0 11 6 -2 13 -30 7 -27 13 -59 13 -70z m-2329 3 c-18 -35 -47 -103 -65 -153 -18 -49 -33 -85 -34 -78 -1 33 110 293 125 293 3 0 -9 -28 -26 -62z m-479 39 c0 -2 -12 -14 -27 -28 l-28 -24 24 28 c23 25 31 32 31 24z m2430 -102 c91 -46 162 -84 157 -85 -10 0 -327 159 -327 165 0 7 -8 11 170 -80z m-2490 52 c0 -2 -10 -12 -22 -23 l-23 -19 19 23 c18 21 26 27 26 19z m2877 -49 c-3 -7 -5 -2 -5 12 0 14 2 19 5 13 2 -7 2 -19 0 -25z m-2937 -2 c0 -2 -8 -10 -17 -17 -16 -13 -17 -12 -4 4 13 16 21 21 21 13z m-807 -32 c3 -4 -1 -13 -9 -21 -18 -18 -27 -13 -18 11 6 17 16 20 27 10z m737 -27 c0 -2 -10 -12 -22 -23 l-23 -19 19 23 c18 21 26 27 26 19z m3027 -29 c-3 -7 -5 -2 -5 12 0 14 2 19 5 13 2 -7 2 -19 0 -25z m-3089 -48 c-22 -30 -35 -41 -22 -17 9 16 36 47 41 47 2 0 -6 -13 -19 -30z m3099 8 c-3 -8 -6 -5 -6 6 -1 11 2 17 5 13 3 -3 4 -12 1 -19z m8 -47 c-3 -6 -11 -11 -16 -11 -5 0 -4 6 3 14 14 16 24 13 13 -3z m-3156 -51 c-41 -107 -18 -178 121 -370 190 -263 415 -610 396 -610 -3 0 -28 39 -57 88 -73 121 -228 353 -342 510 -124 171 -142 209 -142 292 0 39 7 80 17 103 25 54 29 45 7 -13z m668 -12 c-3 -8 -6 -5 -6 6 -1 11 2 17 5 13 3 -3 4 -12 1 -19z m-10 -50 c-3 -7 -5 -2 -5 12 0 14 2 19 5 13 2 -7 2 -19 0 -25z m-10 -55 c-3 -10 -5 -4 -5 12 0 17 2 24 5 18 2 -7 2 -21 0 -30z m-10 -75 c-2 -13 -4 -5 -4 17 -1 22 1 32 4 23 2 -10 2 -28 0 -40z m1580 -40 c-2 -13 -4 -5 -4 17 -1 22 1 32 4 23 2 -10 2 -28 0 -40z m-574 1 c12 -6 33 -22 47 -34 14 -12 39 -30 55 -38 17 -9 25 -16 19 -17 -12 0 -78 42 -100 65 -24 24 -54 28 -79 11 -52 -34 -17 -108 74 -156 20 -10 32 -19 27 -20 -20 0 -96 51 -115 79 -39 54 -18 114 42 120 5 1 18 -4 30 -10z m-1016 -101 c-2 -18 -4 -6 -4 27 0 33 2 48 4 33 2 -15 2 -42 0 -60z m1568 33 c-21 -43 -29 -39 -8 4 9 19 18 33 21 31 2 -2 -4 -18 -13 -35z m-155 14 c0 -2 -10 -9 -22 -15 -22 -11 -22 -10 -4 4 21 17 26 19 26 11z m-233 -41 c-3 -3 -12 -4 -19 -1 -8 3 -5 6 6 6 11 1 17 -2 13 -5z m1327 0 c9 -4 22 -16 28 -28 10 -21 10 -20 -14 2 -24 22 -62 28 -85 14 -6 -4 -19 -21 -27 -37 -11 -21 -16 -24 -16 -12 0 43 67 79 114 61z m-1226 -11 c-15 -2 -42 -2 -60 0 -18 2 -6 4 27 4 33 0 48 -2 33 -4z m1280 -163 c0 -103 -5 -87 -11 34 -2 50 0 81 4 70 4 -10 7 -57 7 -104z m-2546 58 c3 -26 2 -45 -3 -42 -5 3 -9 26 -9 51 0 58 6 53 12 -9z m-772 -68 c9 -8 26 -22 36 -31 54 -45 173 -189 210 -253 9 -16 35 -54 59 -84 28 -35 41 -61 38 -73 -5 -16 -10 -13 -31 21 -14 21 -28 37 -30 35 -2 -2 -20 17 -39 43 -20 26 -44 55 -54 65 -11 10 -19 21 -19 25 0 4 -13 21 -30 38 -16 18 -26 35 -22 39 4 5 2 5 -4 2 -9 -5 -65 52 -87 90 -5 7 -13 10 -19 7 -6 -4 -8 -2 -4 4 3 6 -3 17 -15 26 -13 9 -18 19 -14 27 5 8 4 10 -3 5 -10 -6 -32 29 -32 50 0 6 40 -18 60 -36z m767 -9 c1 -11 18 -57 39 -103 56 -127 67 -154 59 -146 -10 10 -95 195 -105 230 -5 14 -6 29 -2 32 8 8 8 8 9 -13z m1310 -18 c-3 -10 -5 -4 -5 12 0 17 2 24 5 18 2 -7 2 -21 0 -30z m-1120 -25 c-3 -8 -6 -5 -6 6 -1 11 2 17 5 13 3 -3 4 -12 1 -19z m1114 -21 c-10 -9 -11 -8 -5 6 3 10 9 15 12 12 3 -3 0 -11 -7 -18z m-1124 -19 c-3 -8 -6 -5 -6 6 -1 11 2 17 5 13 3 -3 4 -12 1 -19z m2190 0 c-3 -8 -6 -5 -6 6 -1 11 2 17 5 13 3 -3 4 -12 1 -19z m170 -20 c-3 -7 -5 -2 -5 12 0 14 2 19 5 13 2 -7 2 -19 0 -25z m-180 -30 c-3 -7 -5 -2 -5 12 0 14 2 19 5 13 2 -7 2 -19 0 -25z m170 -20 c-3 -8 -6 -5 -6 6 -1 11 2 17 5 13 3 -3 4 -12 1 -19z m-979 -28 c89 -41 101 -62 60 -100 -28 -26 -46 -25 -108 6 -46 23 -61 26 -128 22 -43 -3 -86 -8 -97 -11 -11 -4 -6 -1 10 7 51 25 158 20 226 -10 56 -25 60 -26 84 -10 15 10 25 25 23 34 -5 28 -127 81 -210 92 l-73 9 73 -4 c56 -3 90 -12 140 -35z m-255 20 c-57 -12 -116 -44 -171 -93 l-47 -41 40 42 c47 50 145 102 189 101 28 -1 26 -2 -11 -9z m1214 -72 c-3 -8 -6 -5 -6 6 -1 11 2 17 5 13 3 -3 4 -12 1 -19z m-3954 -33 c-3 -9 -8 -14 -10 -11 -3 3 -2 9 2 15 9 16 15 13 8 -4z m-26 -77 c-3 -8 -6 -5 -6 6 -1 11 2 17 5 13 3 -3 4 -12 1 -19z m-12 -75 c-4 -32 -11 -114 -16 -183 l-8 -125 4 145 c4 140 12 220 22 220 3 0 2 -26 -2 -57z m1720 -270 c54 -114 106 -225 117 -245 10 -21 16 -38 13 -38 -16 0 -256 526 -254 556 1 11 7 0 14 -23 7 -23 57 -135 110 -250z m1245 222 c0 -30 -3 -35 -22 -34 -17 1 -19 2 -5 6 10 3 17 14 17 28 l0 24 -142 4 -143 3 148 2 147 2 0 -35z m-1856 -21 c14 -20 27 -64 20 -64 -3 0 -10 13 -15 30 -6 16 -14 28 -18 26 -4 -3 -12 4 -18 14 -17 26 13 21 31 -6z m281 -14 c9 -16 13 -30 11 -30 -3 0 -12 14 -21 30 -9 17 -13 30 -11 30 3 0 12 -13 21 -30z m2498 15 c-3 -9 -8 -14 -10 -11 -3 3 -2 9 2 15 9 16 15 13 8 -4z m-23 -45 c-6 -11 -13 -20 -16 -20 -2 0 0 9 6 20 6 11 13 20 16 20 2 0 0 -9 -6 -20z m-2435 -40 c9 -16 13 -30 11 -30 -3 0 -12 14 -21 30 -9 17 -13 30 -11 30 3 0 12 -13 21 -30z m-185 16 c0 -3 -4 -8 -10 -11 -5 -3 -10 -1 -10 4 0 6 5 11 10 11 6 0 10 -2 10 -4z m2390 0 c0 -2 -8 -10 -17 -17 -16 -13 -17 -12 -4 4 13 16 21 21 21 13z m193 -37 c-10 -17 -24 -36 -32 -42 -8 -7 -2 7 14 31 32 49 45 57 18 11z m-2353 -59 c11 -22 18 -40 15 -40 -2 0 -14 18 -25 40 -11 22 -18 40 -15 40 2 0 14 -18 25 -40z m2310 -4 c0 -2 -8 -10 -17 -17 -16 -13 -17 -12 -4 4 13 16 21 21 21 13z m-1592 -66 c-12 -17 -33 -38 -47 -46 -16 -10 -9 1 19 30 51 53 60 58 28 16z m1562 26 c0 -2 -8 -10 -17 -17 -16 -13 -17 -12 -4 4 13 16 21 21 21 13z m-2235 -36 c9 -16 13 -30 11 -30 -3 0 -12 14 -21 30 -9 17 -13 30 -11 30 3 0 12 -13 21 -30z m-1548 -587 c-1 -109 -2 -20 -2 197 0 217 1 306 2 198 2 -109 2 -287 0 -395z m3743 574 c0 -2 -12 -14 -27 -28 l-28 -24 24 28 c23 25 31 32 31 24z m-2135 -97 c9 -16 13 -30 11 -30 -3 0 -12 14 -21 30 -9 17 -13 30 -11 30 3 0 12 -13 21 -30z m2065 16 c0 -2 -8 -10 -17 -17 -16 -13 -17 -12 -4 4 13 16 21 21 21 13z m-60 -49 c0 -2 -15 -16 -32 -33 l-33 -29 29 33 c28 30 36 37 36 29z m-1960 -47 c6 -11 8 -20 6 -20 -3 0 -10 9 -16 20 -6 11 -8 20 -6 20 3 0 10 -9 16 -20z m365 -10 c10 -11 16 -20 13 -20 -3 0 -13 9 -23 20 -10 11 -16 20 -13 20 3 0 13 -9 23 -20z m1525 -4 c0 -2 -8 -10 -17 -17 -16 -13 -17 -12 -4 4 13 16 21 21 21 13z m-2866 -32 c3 -8 2 -12 -4 -9 -6 3 -10 10 -10 16 0 14 7 11 14 -7z m1241 6 c-3 -5 -12 -10 -18 -10 -7 0 -6 4 3 10 19 12 23 12 15 0z m-210 -60 c9 -16 13 -30 11 -30 -3 0 -12 14 -21 30 -9 17 -13 30 -11 30 3 0 12 -13 21 -30z m-990 -20 c9 -16 13 -30 11 -30 -3 0 -12 14 -21 30 -9 17 -13 30 -11 30 3 0 12 -13 21 -30z m1035 -60 c11 -22 18 -40 15 -40 -2 0 -14 18 -25 40 -11 22 -18 40 -15 40 2 0 14 -18 25 -40z m-1006 4 c3 -8 2 -12 -4 -9 -6 3 -10 10 -10 16 0 14 7 11 14 -7z m51 -94 c14 -27 23 -50 20 -50 -2 0 -16 23 -30 50 -14 28 -23 50 -20 50 2 0 16 -22 30 -50z m995 20 c6 -11 8 -20 6 -20 -3 0 -10 9 -16 20 -6 11 -8 20 -6 20 3 0 10 -9 16 -20z m40 -70 c11 -22 18 -40 15 -40 -2 0 -14 18 -25 40 -11 22 -18 40 -15 40 2 0 14 -18 25 -40z m-945 -120 c19 -38 33 -70 30 -70 -2 0 -21 32 -40 70 -19 39 -33 70 -30 70 2 0 21 -31 40 -70z m1004 15 c13 -22 15 -31 6 -20 -18 22 -53 86 -38 70 6 -5 20 -28 32 -50z m50 -81 c12 -19 16 -32 11 -29 -11 7 -43 65 -36 65 2 0 13 -16 25 -36z m-959 -114 c11 -22 18 -40 15 -40 -2 0 -14 18 -25 40 -11 22 -18 40 -15 40 2 0 14 -18 25 -40z m1030 0 c6 -11 8 -20 6 -20 -3 0 -10 9 -16 20 -6 11 -8 20 -6 20 3 0 10 -9 16 -20z m111 -157 c13 -16 12 -17 -3 -4 -10 7 -18 15 -18 17 0 8 8 3 21 -13z m30 -40 c13 -16 12 -17 -3 -4 -17 13 -22 21 -14 21 2 0 10 -8 17 -17z m30 -40 c13 -16 12 -17 -3 -4 -10 7 -18 15 -18 17 0 8 8 3 21 -13z m-1031 -63 c6 -11 8 -20 6 -20 -3 0 -10 9 -16 20 -6 11 -8 20 -6 20 3 0 10 -9 16 -20z m205 -57 c22 -32 68 -93 102 -135 35 -43 59 -78 54 -78 -20 0 -151 166 -201 255 -30 54 -2 28 45 -42z m896 40 c13 -16 12 -17 -3 -4 -10 7 -18 15 -18 17 0 8 8 3 21 -13z m154 -153 c10 -11 16 -20 13 -20 -3 0 -13 9 -23 20 -10 11 -16 20 -13 20 3 0 13 -9 23 -20z m-290 -398 c3 -7 9 -11 13 -8 9 5 122 -32 222 -74 30 -12 67 -28 83 -34 95 -38 -91 -32 -202 7 -41 14 -77 30 -80 35 -3 4 -22 16 -42 25 -34 15 -49 34 -49 58 0 14 49 6 55 -9z"
       id="path1" />
    <path
       d="M5934 7788 l-19 -23 23 19 c21 18 27 26 19 26 -2 0 -12 -10 -23 -22z"
       id="path2" />
    <path
       d="M5870 7730 c-8 -5 -12 -12 -9 -15 4 -3 12 1 19 10 14 17 11 19 -10 5z"
       id="path3" />
    <path
       d="M4032 7990 c0 -14 2 -19 5 -12 2 6 2 18 0 25 -3 6 -5 1 -5 -13z"
       id="path4" />
    <path
       d="M3940 7996 c0 -2 7 -7 16 -10 8 -3 12 -2 9 4 -6 10 -25 14 -25 6z"
       id="path5" />
    <path
       d="M3810 7940 c-9 -6 -10 -10 -3 -10 6 0 15 5 18 10 8 12 4 12 -15 0z"
       id="path6" />
    <path
       d="M3723 7903 c-18 -7 -16 -23 2 -23 8 0 15 7 15 15 0 8 -1 15 -2 14 -2 0 -9 -3 -15 -6z"
       id="path7" />
    <path
       d="M3680 7852 c0 -5 7 -13 16 -16 10 -4 14 -1 12 6 -5 15 -28 23 -28 10z"
       id="path8" />
    <path
       d="M4035 7810 c-3 -5 -1 -10 4 -10 6 0 11 5 11 10 0 6 -2 10 -4 10 -3 0 -8 -4 -11 -10z"
       id="path9" />
    <path
       d="M3950 7570 c0 -5 5 -10 10 -10 6 0 10 5 10 10 0 6 -4 10 -10 10 -5 0 -10 -4 -10 -10z"
       id="path10" />
    <path
       d="M3800 7021 c0 -6 4 -13 10 -16 6 -3 7 1 4 9 -7 18 -14 21 -14 7z"
       id="path11" />
    <path
       d="M3644 6978 c3 -10 1 -20 -4 -23 -6 -4 -10 -11 -10 -18 0 -7 7 -5 16 5 13 13 14 20 4 34 -10 16 -11 16 -6 2z"
       id="path12" />
    <path
       d="M3600 6970 c0 -5 5 -10 11 -10 5 0 7 5 4 10 -3 6 -8 10 -11 10 -2 0 -4 -4 -4 -10z"
       id="path13" />
    <path
       d="M6355 6470 c-3 -5 -2 -10 4 -10 5 0 13 5 16 10 3 6 2 10 -4 10 -5 0 -13 -4 -16 -10z"
       id="path14" />
    <path
       d="M6700 6115 c-11 -13 -10 -14 4 -9 9 3 16 2 16 -4 0 -5 -10 -12 -22 -15 -18 -5 -19 -8 -8 -21 7 -9 19 -16 26 -16 8 0 14 -4 14 -9 0 -5 -9 -7 -20 -4 -14 4 -20 1 -18 -8 2 -8 -7 -14 -22 -15 -20 -2 -20 -1 -4 2 16 4 20 11 17 25 -3 10 -12 19 -19 19 -8 0 -14 5 -14 10 0 6 -5 10 -11 10 -8 0 -10 -12 -6 -35 7 -41 -13 -48 -37 -13 -14 20 -16 20 -16 4 0 -15 -5 -17 -30 -12 -18 3 -30 1 -30 -5 0 -6 -4 -8 -9 -4 -5 3 -12 1 -15 -4 -7 -10 19 -9 29 1 4 3 20 2 36 -2 20 -6 27 -5 23 2 -4 7 -2 8 5 4 17 -11 4 -25 -19 -21 -12 2 -18 0 -16 -4 3 -5 -3 -16 -14 -26 -11 -10 -20 -23 -20 -28 0 -6 10 -1 23 11 71 67 198 69 284 6 35 -27 48 -30 37 -11 -4 7 -3 9 2 4 5 -5 9 -14 9 -20 0 -7 12 -13 26 -15 60 -7 80 69 32 114 -33 31 -69 50 -137 74 -28 10 -58 21 -67 24 -9 4 -21 0 -29 -9z m63 -35 c-3 -9 -17 -17 -34 -18 -31 -2 -40 12 -13 22 9 3 14 12 11 20 -4 11 -1 11 17 3 14 -7 21 -18 19 -27z m74 -7 c12 -3 34 -16 47 -28 14 -13 27 -21 29 -18 3 2 8 0 12 -6 3 -7 -2 -11 -14 -11 -12 0 -21 7 -21 15 0 18 -20 20 -21 3 0 -7 -4 -3 -9 9 -12 28 -44 20 -37 -9 4 -12 1 -18 -6 -15 -7 3 -11 10 -9 17 1 7 -5 19 -15 27 -10 8 -12 12 -5 8 13 -7 17 10 5 18 -5 2 -1 2 7 -1 8 -2 25 -7 37 -9z m-172 -33 c-3 -5 -12 -10 -18 -10 -7 0 -6 4 3 10 19 12 23 12 15 0z m111 -37 c-6 -6 -36 9 -36 18 0 5 9 4 20 -3 10 -7 18 -14 16 -15z m174 -13 c0 -5 -2 -10 -4 -10 -3 0 -8 5 -11 10 -3 6 -1 10 4 10 6 0 11 -4 11 -10z"
       id="path15" />
    <path
       d="M6655 6090 c3 -5 8 -10 11 -10 2 0 4 5 4 10 0 6 -5 10 -11 10 -5 0 -7 -4 -4 -10z"
       id="path16" />
    <path
       d="M6456 5978 c5 -7 2 -9 -8 -6 -8 4 -15 0 -15 -8 0 -7 4 -11 8 -8 4 2 10 0 14 -6 3 -5 1 -10 -4 -10 -6 0 -11 -5 -11 -11 0 -21 27 10 33 36 3 17 0 25 -10 25 -8 0 -11 -5 -7 -12z"
       id="path17" />
    <path
       d="M6486 5966 c-10 -39 -2 -43 29 -11 27 26 28 48 1 26 -11 -9 -15 -9 -18 1 -3 7 -8 0 -12 -16z"
       id="path18" />
  </g>
</svg>
